<svg xmlns="http://www.w3.org/2000/svg"  viewBox="0 0 100 100" width="400px" height="400px"><path fill="#fff" d="M68,19H29c-6.6,0-12,5.4-12,12v39c0,6.6,5.4,12,12,12h39c6.6,0,12-5.4,12-12V31 C80,24.4,74.6,19,68,19z"/><path fill="#f9e65c" d="M80,35v-4.012c0-6.6-5.4-12-12-12H29c-6.6,0-12,5.4-12,12V35H80z"/><path fill="#1f212b" d="M68,82.988H29c-7.18,0-13-5.82-13-13v-39c0-7.18,5.82-13,13-13h39c7.18,0,13,5.82,13,13v39 C81,77.168,75.179,82.988,68,82.988z M18,30.988v39c0,6.075,4.925,11,11,11h39c6.075,0,11-4.925,11-11v-39c0-6.075-4.925-11-11-11 H29C22.924,19.988,18,24.913,18,30.988z"/><line x1="17.5" x2="79.5" y1="34.5" y2="34.5" fill="none" stroke="#1f212b" stroke-linecap="round" stroke-linejoin="round" stroke-miterlimit="10"/><line x1="36.5" x2="80" y1="50.5" y2="50.5" fill="none" stroke="#1f212b" stroke-linecap="round" stroke-linejoin="round" stroke-miterlimit="10"/><line x1="29.483" x2="32.5" y1="50.5" y2="50.5" fill="none" stroke="#1f212b" stroke-linecap="round" stroke-linejoin="round" stroke-miterlimit="10"/><line x1="18" x2="26.5" y1="50.5" y2="50.5" fill="none" stroke="#1f212b" stroke-linecap="round" stroke-linejoin="round" stroke-miterlimit="10"/><line x1="71.5" x2="80" y1="66.5" y2="66.5" fill="none" stroke="#1f212b" stroke-linecap="round" stroke-linejoin="round" stroke-miterlimit="10"/><line x1="65.5" x2="67.5" y1="66.5" y2="66.5" fill="none" stroke="#1f212b" stroke-linecap="round" stroke-linejoin="round" stroke-miterlimit="10"/><line x1="59.5" x2="62.5" y1="66.5" y2="66.5" fill="none" stroke="#1f212b" stroke-linecap="round" stroke-linejoin="round" stroke-miterlimit="10"/><line x1="18" x2="55.5" y1="66.5" y2="66.5" fill="none" stroke="#1f212b" stroke-linecap="round" stroke-linejoin="round" stroke-miterlimit="10"/><line x1="20.5" x2="21.5" y1="37.5" y2="37.5" fill="none" stroke="#1f212b" stroke-linecap="round" stroke-linejoin="round" stroke-miterlimit="10"/><line x1="25.5" x2="26.5" y1="37.5" y2="37.5" fill="none" stroke="#1f212b" stroke-linecap="round" stroke-linejoin="round" stroke-miterlimit="10"/><line x1="30.5" x2="31.5" y1="37.5" y2="37.5" fill="none" stroke="#1f212b" stroke-linecap="round" stroke-linejoin="round" stroke-miterlimit="10"/><line x1="35.5" x2="36.5" y1="37.5" y2="37.5" fill="none" stroke="#1f212b" stroke-linecap="round" stroke-linejoin="round" stroke-miterlimit="10"/><line x1="40.5" x2="41.5" y1="37.5" y2="37.5" fill="none" stroke="#1f212b" stroke-linecap="round" stroke-linejoin="round" stroke-miterlimit="10"/><line x1="45.5" x2="46.5" y1="37.5" y2="37.5" fill="none" stroke="#1f212b" stroke-linecap="round" stroke-linejoin="round" stroke-miterlimit="10"/><line x1="50.5" x2="51.5" y1="37.5" y2="37.5" fill="none" stroke="#1f212b" stroke-linecap="round" stroke-linejoin="round" stroke-miterlimit="10"/><line x1="55.5" x2="56.5" y1="37.5" y2="37.5" fill="none" stroke="#1f212b" stroke-linecap="round" stroke-linejoin="round" stroke-miterlimit="10"/><line x1="60.5" x2="61.5" y1="37.5" y2="37.5" fill="none" stroke="#1f212b" stroke-linecap="round" stroke-linejoin="round" stroke-miterlimit="10"/><line x1="65.5" x2="66.5" y1="37.5" y2="37.5" fill="none" stroke="#1f212b" stroke-linecap="round" stroke-linejoin="round" stroke-miterlimit="10"/><line x1="70.5" x2="71.5" y1="37.5" y2="37.5" fill="none" stroke="#1f212b" stroke-linecap="round" stroke-linejoin="round" stroke-miterlimit="10"/><line x1="75.5" x2="76.5" y1="37.5" y2="37.5" fill="none" stroke="#1f212b" stroke-linecap="round" stroke-linejoin="round" stroke-miterlimit="10"/></svg>